<svg width="66" height="67" viewBox="0 0 66 67" fill="none" xmlns="http://www.w3.org/2000/svg">
<path d="M28.5 15.9099C27.1193 15.9099 26 17.0292 26 18.4099C26 19.7906 27.1193 20.9099 28.5 20.9099V18.4099V15.9099ZM65.2678 20.1777C66.2441 19.2014 66.2441 17.6185 65.2678 16.6421L49.3579 0.732243C48.3816 -0.244068 46.7986 -0.244068 45.8223 0.732243C44.846 1.70855 44.846 3.29147 45.8223 4.26778L59.9645 18.4099L45.8223 32.552C44.846 33.5284 44.846 35.1113 45.8223 36.0876C46.7986 37.0639 48.3816 37.0639 49.3579 36.0876L65.2678 20.1777ZM28.5 18.4099V20.9099H63.5V18.4099V15.9099H28.5V18.4099Z" fill="#C93434"/>
<path d="M37.5 50.9099C38.8807 50.9099 40 49.7906 40 48.4099C40 47.0292 38.8807 45.9099 37.5 45.9099L37.5 48.4099L37.5 50.9099ZM0.732231 46.6421C-0.244076 47.6185 -0.244076 49.2014 0.732231 50.1777L16.6421 66.0876C17.6184 67.0639 19.2014 67.0639 20.1777 66.0876C21.154 65.1113 21.154 63.5284 20.1777 62.552L6.03553 48.4099L20.1777 34.2678C21.154 33.2915 21.154 31.7086 20.1777 30.7322C19.2014 29.7559 17.6184 29.7559 16.6421 30.7322L0.732231 46.6421ZM37.5 48.4099L37.5 45.9099L2.5 45.9099L2.5 48.4099L2.5 50.9099L37.5 50.9099L37.5 48.4099Z" fill="#34C759" fill-opacity="0.933333"/>
</svg>
